<?xml version="1.0" standalone="no"?>
<!DOCTYPE svg PUBLIC "-//W3C//DTD SVG 20010904//EN"
 "http://www.w3.org/TR/2001/REC-SVG-20010904/DTD/svg10.dtd">
<svg version="1.0" xmlns="http://www.w3.org/2000/svg"
 width="64.000000pt" height="64.000000pt" viewBox="0 0 64.000000 64.000000"
 preserveAspectRatio="xMidYMid meet">

<g transform="translate(0.000000,64.000000) scale(0.100000,-0.100000)"
fill="#000000" stroke="none">
<path d="M123 611 c-61 -16 -64 -22 -62 -156 1 -68 4 -128 8 -133 4 -6 22 -18
41 -26 l35 -15 -38 -1 c-27 0 -45 -7 -62 -25 -23 -23 -25 -31 -25 -130 0 -63
4 -105 10 -105 6 0 10 40 10 100 0 87 3 103 20 120 28 28 40 25 40 -10 0 -16
5 -30 10 -30 6 0 10 14 10 30 0 17 5 30 10 30 6 0 10 -18 10 -40 0 -38 -2 -40
-30 -40 l-30 0 0 -80 c0 -47 4 -80 10 -80 6 0 10 30 10 70 l0 70 60 0 c33 0
60 4 60 10 0 6 -13 10 -30 10 -22 0 -30 5 -30 18 0 13 9 17 40 17 37 0 40 -2
40 -27 0 -24 4 -28 30 -28 l30 0 0 -70 c0 -40 4 -70 10 -70 6 0 10 33 10 80 0
47 -4 80 -10 80 -5 0 -10 18 -10 40 0 44 16 52 43 22 11 -12 17 -36 17 -70 0
-29 5 -52 10 -52 6 0 10 25 10 55 0 71 -28 105 -87 105 l-38 1 35 15 c19 8 38
20 42 27 4 7 8 67 8 134 0 118 -1 123 -24 138 -28 19 -146 28 -193 16z m180
-32 c15 -8 17 -25 17 -119 0 -92 -2 -110 -15 -110 -25 0 -82 27 -107 49 l-22
21 62 0 62 0 0 30 c0 34 -17 41 -22 9 -3 -19 -5 -19 -32 10 l-30 31 42 0 c23
0 42 5 42 10 0 6 -33 10 -80 10 l-80 0 0 34 c0 24 5 36 18 40 23 6 123 -4 145
-15z m-88 -109 l29 -30 -62 0 c-60 0 -62 1 -62 27 0 25 0 26 20 8 23 -21 39
-13 20 10 -25 30 25 16 55 -15z m23 -206 c-2 -9 -11 -22 -20 -28 -21 -13 -51
2 -56 28 -3 13 5 16 38 16 33 0 41 -3 38 -16z m42 -44 c0 -22 -4 -40 -10 -40
-5 0 -10 18 -10 40 0 22 5 40 10 40 6 0 10 -18 10 -40z"/>
<path d="M150 550 c0 -5 5 -10 10 -10 6 0 10 5 10 10 0 6 -4 10 -10 10 -5 0
-10 -4 -10 -10z"/>
<path d="M190 550 c0 -5 5 -10 10 -10 6 0 10 5 10 10 0 6 -4 10 -10 10 -5 0
-10 -4 -10 -10z"/>
<path d="M230 550 c0 -5 5 -10 10 -10 6 0 10 5 10 10 0 6 -4 10 -10 10 -5 0
-10 -4 -10 -10z"/>
<path d="M270 550 c0 -5 5 -10 10 -10 6 0 10 5 10 10 0 6 -4 10 -10 10 -5 0
-10 -4 -10 -10z"/>
<path d="M230 390 c0 -5 5 -10 10 -10 6 0 10 5 10 10 0 6 -4 10 -10 10 -5 0
-10 -4 -10 -10z"/>
<path d="M270 390 c0 -5 5 -10 10 -10 6 0 10 5 10 10 0 6 -4 10 -10 10 -5 0
-10 -4 -10 -10z"/>
<path d="M450 510 c0 -5 5 -10 10 -10 6 0 10 5 10 10 0 6 -4 10 -10 10 -5 0
-10 -4 -10 -10z"/>
<path d="M530 490 c0 -5 5 -10 10 -10 6 0 10 5 10 10 0 6 -4 10 -10 10 -5 0
-10 -4 -10 -10z"/>
<path d="M470 475 c0 -12 24 -55 32 -55 11 0 10 4 -4 35 -9 21 -28 35 -28 20z"/>
<path d="M580 460 c0 -5 5 -10 10 -10 6 0 10 5 10 10 0 6 -4 10 -10 10 -5 0
-10 -4 -10 -10z"/>
<path d="M410 450 c0 -5 5 -10 10 -10 6 0 10 5 10 10 0 6 -4 10 -10 10 -5 0
-10 -4 -10 -10z"/>
<path d="M530 440 c0 -11 5 -20 10 -20 6 0 10 9 10 20 0 11 -4 20 -10 20 -5 0
-10 -9 -10 -20z"/>
<path d="M440 422 c0 -14 39 -46 47 -39 3 4 -2 16 -12 27 -19 21 -35 26 -35
12z"/>
<path d="M590 410 c0 -5 5 -10 10 -10 6 0 10 5 10 10 0 6 -4 10 -10 10 -5 0
-10 -4 -10 -10z"/>
<path d="M556 401 c-5 -8 -18 -10 -32 -7 -19 5 -24 2 -24 -14 0 -12 -7 -20
-16 -20 -10 0 -14 -5 -10 -15 3 -9 -1 -18 -9 -21 -8 -4 -12 -10 -10 -15 3 -4
-3 -14 -15 -21 -12 -8 -20 -23 -20 -40 0 -16 -4 -28 -10 -28 -5 0 -10 -25 -10
-54 0 -50 -2 -56 -27 -68 -21 -10 -29 -22 -31 -46 -2 -18 1 -32 7 -32 6 0 11
9 11 19 0 11 5 23 10 26 6 3 10 -3 10 -13 0 -31 63 -45 88 -20 15 15 16 64 2
73 -5 3 -10 31 -10 61 0 31 -4 54 -11 54 -6 0 -9 12 -7 28 2 19 9 27 23 27 11
0 26 4 33 8 8 5 12 3 12 -7 0 -18 16 -21 26 -5 4 8 9 8 17 0 17 -17 27 -13 27
9 0 13 7 20 20 20 21 0 27 15 10 25 -6 4 -8 15 -5 26 5 13 2 19 -10 19 -8 0
-19 10 -24 22 -5 15 -10 18 -15 9z m18 -53 c14 -23 -2 -50 -33 -55 -17 -2 -22
1 -18 12 4 8 0 21 -8 28 -10 11 -11 17 -2 26 16 16 47 10 61 -11z m-114 -278
c0 -27 -3 -30 -30 -30 -27 0 -30 3 -30 30 0 27 3 30 30 30 27 0 30 -3 30 -30z"/>
<path d="M420 360 c0 -5 5 -10 10 -10 6 0 10 5 10 10 0 6 -4 10 -10 10 -5 0
-10 -4 -10 -10z"/>
<path d="M600 270 c0 -5 5 -10 10 -10 6 0 10 5 10 10 0 6 -4 10 -10 10 -5 0
-10 -4 -10 -10z"/>
<path d="M470 240 c0 -5 5 -10 10 -10 6 0 10 5 10 10 0 6 -4 10 -10 10 -5 0
-10 -4 -10 -10z"/>
<path d="M540 230 c0 -11 5 -20 10 -20 6 0 10 9 10 20 0 11 -4 20 -10 20 -5 0
-10 -9 -10 -20z"/>
<path d="M580 220 c0 -5 5 -10 10 -10 6 0 10 5 10 10 0 6 -4 10 -10 10 -5 0
-10 -4 -10 -10z"/>
<path d="M540 180 c0 -5 5 -10 10 -10 6 0 10 5 10 10 0 6 -4 10 -10 10 -5 0
-10 -4 -10 -10z"/>
<path d="M120 130 c0 -5 5 -10 10 -10 6 0 10 5 10 10 0 6 -4 10 -10 10 -5 0
-10 -4 -10 -10z"/>
<path d="M270 130 c0 -5 5 -10 10 -10 6 0 10 5 10 10 0 6 -4 10 -10 10 -5 0
-10 -4 -10 -10z"/>
<path d="M130 60 c0 -22 5 -40 10 -40 6 0 10 14 10 30 0 29 1 30 50 30 49 0
50 -1 50 -30 0 -16 5 -30 10 -30 6 0 10 18 10 40 l0 40 -70 0 -70 0 0 -40z"/>
</g>
</svg>
